<svg xmlns="http://www.w3.org/2000/svg" width="32" height="32" viewBox="0 0 32 32">
  <rect width="32" height="32" fill="#FFFFFF"/>
  <g transform="translate(16,16)">
    <g>
      <path d="M0,-10 L3,-3 L10,-3 L4,0 L6,7 L0,4 L-6,7 L-4,0 L-10,-3 L-3,-3 Z" fill="#FF5733"/>
      <path d="M0,-10 L3,-3 L10,-3 L4,0 L6,7 L0,4 L-6,7 L-4,0 L-10,-3 L-3,-3 Z" fill="#33FF57" transform="rotate(45)"/>
      <path d="M0,-10 L3,-3 L10,-3 L4,0 L6,7 L0,4 L-6,7 L-4,0 L-10,-3 L-3,-3 Z" fill="#3357FF" transform="rotate(90)"/>
      <path d="M0,-10 L3,-3 L10,-3 L4,0 L6,7 L0,4 L-6,7 L-4,0 L-10,-3 L-3,-3 Z" fill="#FF33A1" transform="rotate(135)"/>
      <path d="M0,-10 L3,-3 L10,-3 L4,0 L6,7 L0,4 L-6,7 L-4,0 L-10,-3 L-3,-3 Z" fill="#FF33FF" transform="rotate(180)"/>
      <path d="M0,-10 L3,-3 L10,-3 L4,0 L6,7 L0,4 L-6,7 L-4,0 L-10,-3 L-3,-3 Z" fill="#33FFFF" transform="rotate(225)"/>
      <path d="M0,-10 L3,-3 L10,-3 L4,0 L6,7 L0,4 L-6,7 L-4,0 L-10,-3 L-3,-3 Z" fill="#FFFF33" transform="rotate(270)"/>
      <path d="M0,-10 L3,-3 L10,-3 L4,0 L6,7 L0,4 L-6,7 L-4,0 L-10,-3 L-3,-3 Z" fill="#FF5733" transform="rotate(315)"/>
    </g>
  </g>
</svg>