<svg xmlns="http://www.w3.org/2000/svg" width="128" height="128" viewBox="0 0 128 128">
  <circle cx="64" cy="64" r="50" fill="white"/>
  <g>
    <path d="M64 10c-10 0-18 8-18 18s8 18 18 18 18-8 18-18-8-18-18-18z" fill="#FF5733" transform="rotate(0 64 64)"/>
    <path d="M64 10c-10 0-18 8-18 18s8 18 18 18 18-8 18-18-8-18-18-18z" fill="#FFC300" transform="rotate(45 64 64)"/>
    <path d="M64 10c-10 0-18 8-18 18s8 18 18 18 18-8 18-18-8-18-18-18z" fill="#DAF7A6" transform="rotate(90 64 64)"/>
    <path d="M64 10c-10 0-18 8-18 18s8 18 18 18 18-8 18-18-8-18-18-18z" fill="#33FF57" transform="rotate(135 64 64)"/>
    <path d="M64 10c-10 0-18 8-18 18s8 18 18 18 18-8 18-18-8-18-18-18z" fill="#3375FF" transform="rotate(180 64 64)"/>
    <path d="M64 10c-10 0-18 8-18 18s8 18 18 18 18-8 18-18-8-18-18-18z" fill="#FF33A1" transform="rotate(225 64 64)"/>
    <path d="M64 10c-10 0-18 8-18 18s8 18 18 18 18-8 18-18-8-18-18-18z" fill="#FF33B5" transform="rotate(270 64 64)"/>
    <path d="M64 10c-10 0-18 8-18 18s8 18 18 18 18-8 18-18-8-18-18-18z" fill="#FF5733" transform="rotate(315 64 64)"/>
  </g>
</svg>